<svg xmlns="http://www.w3.org/2000/svg" width="100%" height="3593px" xml:space="preserve" preserveAspectRatio="none" data-bgcolor="rgb(139,159,192)">
      
    <clipPath id="0fbf88a7-5353-4009-b293-d78c0755befe">
      <path d="
          M0 0
          L0 3513
          L1870 3513
          L1870 80
          C1870 80, 1753.2348733165782 -36.76512668342184, 1636.4697466331563 80 C1636.4697466331563 80, 1587.0852948418633 30.61554820870697, 1537.7008430505703 80 C1537.7008430505703 80, 1491.8970974961678 34.19625444559756, 1446.0933519417654 80 C1446.0933519417654 80, 1306.0629053131458 -60.03044662861953, 1166.0324586845263 80 C1166.0324586845263 80, 1103.2365414658102 17.204082781283887, 1040.440624247094 80 C1040.440624247094 80, 1031.2282405271435 70.7876162800494, 1022.0158568071929 80 C1022.0158568071929 80, 783.8020639574324 -158.21379284976047, 545.588271107672 80 C545.588271107672 80, 385.0476694105146 -80.5406016971574, 224.50706771335717 80 C224.50706771335717 80, 203.8222847794941 59.31521706613694, 183.13750184563105 80 C183.13750184563105 80, 91.56875092281552 -11.568750922815525, 0 80 C0 80, 0 80, 0 80
          Z
        "></path>
    </clipPath>
  
    <clipPath id="0fbf88a7-5353-4009-b293-d78c0755befe">
      <path d="
          M0 0
          L0 3523
          L1870 3523
          L1870 90
          C1870 90, 1668.526988824815 -111.47301117518509, 1467.0539776496298 90 C1467.0539776496298 90, 1188.785123548577 -188.26885410105274, 910.5162694475243 90 C910.5162694475243 90, 772.5072269503328 -48.00904249719156, 634.4981844531412 90 C634.4981844531412 90, 586.364841572663 41.86665711952173, 538.2314986921847 90 C538.2314986921847 90, 527.1013278831924 78.86982919100774, 515.9711570742002 90 C515.9711570742002 90, 511.2022744703427 85.23111739614251, 506.4333918664852 90 C506.4333918664852 90, 502.68630574021245 86.25291387372727, 498.9392196139397 90 C498.9392196139397 90, 467.9114348461576 58.97221523221788, 436.88365007837547 90 C436.88365007837547 90, 398.9281548062604 52.04450472788494, 360.97265953414535 90 C360.97265953414535 90, 180.48632976707268 -90.48632976707268, 0 90 C0 90, 0 90, 0 90
          Z
        "></path>
    </clipPath>
  
    <clipPath id="0fbf88a7-5353-4009-b293-d78c0755befe">
      <path d="
          M0 0
          L0 3533
          L1870 3533
          L1870 100
          C1870 100, 1679.220962155341 -90.77903784465889, 1488.4419243106822 100 C1488.4419243106822 100, 1371.0152912479816 -17.426633062700603, 1253.588658185281 100 C1253.588658185281 100, 1229.505615825442 75.91695764016094, 1205.422573465603 100 C1205.422573465603 100, 1123.5091179774804 18.08654451187749, 1041.595662489358 100 C1041.595662489358 100, 783.0009349183933 -158.59472757096455, 524.4062073474288 100 C524.4062073474288 100, 498.35952627938696 73.95331893195817, 472.3128452113451 100 C472.3128452113451 100, 471.3106227551566 98.99777754381148, 470.3084002989681 100 C470.3084002989681 100, 402.13332614345063 31.82492584448255, 333.9582519879332 100 C333.9582519879332 100, 277.8711289426519 43.91287695471874, 221.78400589737066 100 C221.78400589737066 100, 110.89200294868533 -10.892002948685331, 0 100 C0 100, 0 100, 0 100
          Z
        "></path>
    </clipPath>
  
    <clipPath id="0fbf88a7-5353-4009-b293-d78c0755befe">
      <path d="
          M0 0
          L0 3543
          L1870 3543
          L1870 110
          C1870 110, 1779.4926852824574 19.492685282457387, 1688.9853705649148 110 C1688.9853705649148 110, 1617.6079075054122 38.62253694049741, 1546.2304444459096 110 C1546.2304444459096 110, 1275.579844109584 -160.65060033632562, 1004.9292437732583 110 C1004.9292437732583 110, 951.40049931872 56.471255545461645, 897.8717548641816 110 C897.8717548641816 110, 692.3930174243333 -95.47873743984837, 486.9142799844849 110 C486.9142799844849 110, 445.77237805910045 68.85809807461555, 404.630476133716 110 C404.630476133716 110, 304.70847545463585 10.077999320919844, 204.7864747755557 110 C204.7864747755557 110, 171.16898442621277 76.38250965065708, 137.55149407686986 110 C137.55149407686986 110, 86.7754826553751 59.22398857850524, 35.99947123388034 110 C35.99947123388034 110, 17.99973561694017 92.00026438305983, 0 110 C0 110, 0 110, 0 110
          Z
        "></path>
    </clipPath>
  
      </svg>